<?xml version="1.0" standalone="no"?>
<!DOCTYPE svg PUBLIC "-//W3C//DTD SVG 20010904//EN"
 "http://www.w3.org/TR/2001/REC-SVG-20010904/DTD/svg10.dtd">
<svg version="1.0" xmlns="http://www.w3.org/2000/svg"
 width="512.000000pt" height="512.000000pt" viewBox="0 0 512.000000 512.000000"
 preserveAspectRatio="xMidYMid meet">

<g transform="translate(0.000000,512.000000) scale(0.100000,-0.100000)"
fill="#fffcfc" stroke="none">
<path d="M1044 4591 c-36 -22 -42 -36 -89 -207 -43 -161 -44 -194 -7 -234 25
-28 61 -39 504 -158 l477 -127 12 -50 c39 -165 153 -319 299 -405 243 -143
554 -108 759 86 l69 64 466 -125 c256 -69 480 -125 497 -125 52 0 86 33 107
103 47 154 75 283 68 310 -9 37 -48 76 -83 83 -16 4 -230 61 -477 128 l-450
121 -12 55 c-53 233 -255 427 -496 475 -96 19 -145 19 -245 0 -111 -21 -228
-81 -313 -162 l-69 -65 -470 126 c-259 69 -481 126 -493 126 -13 0 -37 -9 -54
-19z m1604 -436 c129 -55 170 -220 80 -329 -42 -51 -95 -76 -162 -76 -67 0
-93 9 -141 52 -90 78 -99 207 -22 295 60 68 162 92 245 58z"/>
<path d="M1247 3888 c-59 -95 -824 -1412 -838 -1443 -50 -110 9 -390 121 -572
326 -530 1057 -617 1495 -178 161 160 253 356 277 587 10 91 9 112 -4 145 -8
21 -198 351 -422 733 l-406 695 -83 21 c-45 11 -92 24 -104 28 -17 5 -25 1
-36 -16z m466 -841 l357 -612 -716 -3 c-395 -1 -719 0 -721 2 -6 5 707 1226
716 1226 3 0 167 -276 364 -613z"/>
<path d="M3282 2566 c-226 -386 -421 -722 -434 -747 -20 -38 -23 -57 -22 -139
6 -362 265 -721 616 -849 127 -47 178 -55 338 -55 130 0 169 3 240 23 177 48
329 139 458 276 138 146 227 333 253 529 21 164 48 105 -406 882 -224 385
-415 706 -424 715 -9 9 -59 27 -112 41 l-97 26 -410 -702z m865 -167 l353
-604 -360 -3 c-198 -1 -522 -1 -720 0 l-360 3 316 540 c173 297 333 571 355
608 22 38 45 67 52 64 6 -2 169 -275 364 -608z"/>
</g>
</svg>
